<mxfile host="app.diagrams.net" modified="2023-12-05T15:40:19.532Z" agent="Mozilla/5.0 (X11; Linux x86_64) AppleWebKit/537.36 (KHTML, like Gecko) Chrome/119.0.0.0 Safari/537.36" etag="FBxosshBbMx_xBzAP6oP" version="22.1.5" type="github">
  <diagram name="Page-1" id="5xcIQ1hF4PuccZflKzSc">
    <mxGraphModel dx="572" dy="324" grid="1" gridSize="10" guides="1" tooltips="1" connect="1" arrows="1" fold="1" page="1" pageScale="1" pageWidth="850" pageHeight="1100" math="0" shadow="0">
      <root>
        <mxCell id="0" />
        <mxCell id="1" parent="0" />
        <mxCell id="XKSnobTcjBm1ILdcvmeS-77" value="Node m" style="swimlane;startSize=20;horizontal=1;containerType=tree;" parent="1" vertex="1">
          <mxGeometry x="260" y="40" width="540" height="250" as="geometry" />
        </mxCell>
        <mxCell id="XKSnobTcjBm1ILdcvmeS-78" value="DDR Memory" style="treeFolding=1;treeMoving=1;newEdgeStyle={&quot;edgeStyle&quot;:&quot;elbowEdgeStyle&quot;,&quot;startArrow&quot;:&quot;none&quot;,&quot;endArrow&quot;:&quot;none&quot;};points=[[0,0,0,0,0],[0,0.14,0,0,0],[0,0.38,0,0,0],[0,0.75,0,0,0],[0,1,0,0,0],[0.25,0,0,0,0],[0.25,1,0,0,0],[0.5,0,0,0,0],[0.5,1,0,0,0],[0.75,0,0,0,0],[0.75,1,0,0,0],[1,0,0,0,0],[1,0.38,0,0,0],[1,0.64,0,0,0],[1,1,0,0,0]];" parent="XKSnobTcjBm1ILdcvmeS-77" vertex="1">
          <mxGeometry x="210" y="60" width="120" height="170" as="geometry" />
        </mxCell>
        <mxCell id="XKSnobTcjBm1ILdcvmeS-79" value="Communication&#xa;Controller" style="treeFolding=1;treeMoving=1;newEdgeStyle={&quot;edgeStyle&quot;:&quot;elbowEdgeStyle&quot;,&quot;startArrow&quot;:&quot;none&quot;,&quot;endArrow&quot;:&quot;none&quot;};" parent="XKSnobTcjBm1ILdcvmeS-77" vertex="1">
          <mxGeometry x="10" y="60" width="120" height="170" as="geometry" />
        </mxCell>
        <mxCell id="XKSnobTcjBm1ILdcvmeS-80" value="FPGA" style="swimlane;" parent="XKSnobTcjBm1ILdcvmeS-77" vertex="1">
          <mxGeometry x="410" y="60" width="120" height="170" as="geometry" />
        </mxCell>
        <mxCell id="XKSnobTcjBm1ILdcvmeS-81" value="Core Controller" style="swimlane;points=[[0,0,0,0,0],[0,0.25,0,0,0],[0,0.5,0,0,0],[0,0.81,0,0,0],[0,1,0,0,0],[0.25,0,0,0,0],[0.25,1,0,0,0],[0.5,0,0,0,0],[0.5,1,0,0,0],[0.75,0,0,0,0],[0.75,1,0,0,0],[1,0,0,0,0],[1,0.25,0,0,0],[1,0.5,0,0,0],[1,0.75,0,0,0],[1,1,0,0,0]];" parent="XKSnobTcjBm1ILdcvmeS-80" vertex="1">
          <mxGeometry x="10" y="30" width="100" height="130" as="geometry" />
        </mxCell>
        <mxCell id="XKSnobTcjBm1ILdcvmeS-82" value="Hash&#xa;Core" style="rounded=0;" parent="XKSnobTcjBm1ILdcvmeS-81" vertex="1">
          <mxGeometry x="10" y="30" width="40" height="30" as="geometry" />
        </mxCell>
        <mxCell id="_naygu-frNBAhSqX7FRT-7" value="Hash&#xa;Core" style="rounded=0;" vertex="1" parent="XKSnobTcjBm1ILdcvmeS-81">
          <mxGeometry x="50" y="30" width="40" height="30" as="geometry" />
        </mxCell>
        <mxCell id="_naygu-frNBAhSqX7FRT-9" value="Hash&#xa;Core" style="rounded=0;" vertex="1" parent="XKSnobTcjBm1ILdcvmeS-81">
          <mxGeometry x="10" y="60" width="40" height="30" as="geometry" />
        </mxCell>
        <mxCell id="_naygu-frNBAhSqX7FRT-10" value="Hash&#xa;Core" style="rounded=0;" vertex="1" parent="XKSnobTcjBm1ILdcvmeS-81">
          <mxGeometry x="50" y="60" width="40" height="30" as="geometry" />
        </mxCell>
        <mxCell id="_naygu-frNBAhSqX7FRT-11" value="Hash&#xa;Core" style="rounded=0;" vertex="1" parent="XKSnobTcjBm1ILdcvmeS-81">
          <mxGeometry x="10" y="90" width="40" height="30" as="geometry" />
        </mxCell>
        <mxCell id="_naygu-frNBAhSqX7FRT-12" value="Hash&#xa;Core" style="rounded=0;" vertex="1" parent="XKSnobTcjBm1ILdcvmeS-81">
          <mxGeometry x="50" y="90" width="40" height="30" as="geometry" />
        </mxCell>
        <mxCell id="XKSnobTcjBm1ILdcvmeS-96" value="Salts,&#xa;Hashes,&#xa;Passwords" style="text;strokeColor=none;fillColor=none;align=center;verticalAlign=middle;rounded=0;" parent="XKSnobTcjBm1ILdcvmeS-77" vertex="1">
          <mxGeometry x="340" y="80" width="60" height="30" as="geometry" />
        </mxCell>
        <mxCell id="XKSnobTcjBm1ILdcvmeS-97" value="Found&#xa;Passwords" style="text;strokeColor=none;fillColor=none;align=center;verticalAlign=middle;rounded=0;" parent="XKSnobTcjBm1ILdcvmeS-77" vertex="1">
          <mxGeometry x="340" y="130" width="60" height="30" as="geometry" />
        </mxCell>
        <mxCell id="XKSnobTcjBm1ILdcvmeS-98" value="" style="endArrow=classic;rounded=0;exitX=1;exitY=0.25;exitDx=0;exitDy=0;entryX=0;entryY=0.25;entryDx=0;entryDy=0;" parent="XKSnobTcjBm1ILdcvmeS-77" edge="1">
          <mxGeometry width="50" height="50" relative="1" as="geometry">
            <mxPoint x="130" y="80" as="sourcePoint" />
            <mxPoint x="210" y="80" as="targetPoint" />
          </mxGeometry>
        </mxCell>
        <mxCell id="XKSnobTcjBm1ILdcvmeS-99" value="" style="endArrow=classic;rounded=0;exitX=0;exitY=0.5;exitDx=0;exitDy=0;entryX=1;entryY=0.5;entryDx=0;entryDy=0;" parent="XKSnobTcjBm1ILdcvmeS-77" edge="1">
          <mxGeometry width="50" height="50" relative="1" as="geometry">
            <mxPoint x="210" y="210" as="sourcePoint" />
            <mxPoint x="130" y="210" as="targetPoint" />
          </mxGeometry>
        </mxCell>
        <mxCell id="XKSnobTcjBm1ILdcvmeS-100" value="(1) Salts,&#xa;Hashes." style="text;strokeColor=none;fillColor=none;align=center;verticalAlign=middle;rounded=0;" parent="XKSnobTcjBm1ILdcvmeS-77" vertex="1">
          <mxGeometry x="140" y="40" width="60" height="30" as="geometry" />
        </mxCell>
        <mxCell id="XKSnobTcjBm1ILdcvmeS-101" value="Found&#xa;Passwords" style="text;strokeColor=none;fillColor=none;align=center;verticalAlign=middle;rounded=0;" parent="XKSnobTcjBm1ILdcvmeS-77" vertex="1">
          <mxGeometry x="140" y="170" width="60" height="30" as="geometry" />
        </mxCell>
        <mxCell id="XKSnobTcjBm1ILdcvmeS-102" value="" style="endArrow=classic;rounded=0;exitX=1;exitY=0.25;exitDx=0;exitDy=0;entryX=0;entryY=0.25;entryDx=0;entryDy=0;" parent="XKSnobTcjBm1ILdcvmeS-77" edge="1">
          <mxGeometry width="50" height="50" relative="1" as="geometry">
            <mxPoint x="130" y="130" as="sourcePoint" />
            <mxPoint x="210" y="130" as="targetPoint" />
          </mxGeometry>
        </mxCell>
        <mxCell id="XKSnobTcjBm1ILdcvmeS-103" value="(2) Passwords " style="text;strokeColor=none;fillColor=none;align=center;verticalAlign=middle;rounded=0;" parent="XKSnobTcjBm1ILdcvmeS-77" vertex="1">
          <mxGeometry x="140" y="90" width="60" height="30" as="geometry" />
        </mxCell>
        <mxCell id="_naygu-frNBAhSqX7FRT-16" style="edgeStyle=orthogonalEdgeStyle;rounded=0;orthogonalLoop=1;jettySize=auto;html=1;entryX=1;entryY=0.64;entryDx=0;entryDy=0;entryPerimeter=0;exitX=0;exitY=0.81;exitDx=0;exitDy=0;exitPerimeter=0;" edge="1" parent="XKSnobTcjBm1ILdcvmeS-77" source="XKSnobTcjBm1ILdcvmeS-81" target="XKSnobTcjBm1ILdcvmeS-78">
          <mxGeometry relative="1" as="geometry">
            <mxPoint x="410" y="180" as="sourcePoint" />
          </mxGeometry>
        </mxCell>
        <mxCell id="_naygu-frNBAhSqX7FRT-19" style="edgeStyle=orthogonalEdgeStyle;rounded=0;orthogonalLoop=1;jettySize=auto;html=1;entryX=0;entryY=0.5;entryDx=0;entryDy=0;entryPerimeter=0;exitX=1;exitY=0.38;exitDx=0;exitDy=0;exitPerimeter=0;" edge="1" parent="XKSnobTcjBm1ILdcvmeS-77" source="XKSnobTcjBm1ILdcvmeS-78" target="XKSnobTcjBm1ILdcvmeS-81">
          <mxGeometry relative="1" as="geometry">
            <mxPoint x="430" y="178" as="sourcePoint" />
            <mxPoint x="340" y="179" as="targetPoint" />
          </mxGeometry>
        </mxCell>
        <mxCell id="XKSnobTcjBm1ILdcvmeS-119" value="" style="edgeStyle=orthogonalEdgeStyle;rounded=0;orthogonalLoop=1;jettySize=auto;exitX=0.75;exitY=0;exitDx=0;exitDy=0;entryX=0.75;entryY=1;entryDx=0;entryDy=0;" parent="1" source="XKSnobTcjBm1ILdcvmeS-105" target="XKSnobTcjBm1ILdcvmeS-117" edge="1">
          <mxGeometry relative="1" as="geometry" />
        </mxCell>
        <mxCell id="XKSnobTcjBm1ILdcvmeS-105" value="Orchestrator" style="rounded=0;" parent="1" vertex="1">
          <mxGeometry x="30" y="520" width="120" height="60" as="geometry" />
        </mxCell>
        <mxCell id="XKSnobTcjBm1ILdcvmeS-107" value="" style="endArrow=none;rounded=0;" parent="1" edge="1">
          <mxGeometry relative="1" as="geometry">
            <mxPoint x="200" y="20" as="sourcePoint" />
            <mxPoint x="200" y="1040" as="targetPoint" />
          </mxGeometry>
        </mxCell>
        <mxCell id="XKSnobTcjBm1ILdcvmeS-108" value="Orchestrator-Node&#xa;Bus" style="text;strokeColor=none;fillColor=none;align=center;verticalAlign=middle;rounded=0;" parent="1" vertex="1">
          <mxGeometry x="70" y="230" width="130" height="50" as="geometry" />
        </mxCell>
        <mxCell id="XKSnobTcjBm1ILdcvmeS-109" value="" style="endArrow=classic;rounded=0;exitX=1;exitY=0.25;exitDx=0;exitDy=0;" parent="1" source="XKSnobTcjBm1ILdcvmeS-105" edge="1">
          <mxGeometry width="50" height="50" relative="1" as="geometry">
            <mxPoint x="160" y="550" as="sourcePoint" />
            <mxPoint x="200" y="535" as="targetPoint" />
          </mxGeometry>
        </mxCell>
        <mxCell id="XKSnobTcjBm1ILdcvmeS-110" value="" style="endArrow=classic;rounded=0;entryX=1;entryY=0.75;entryDx=0;entryDy=0;" parent="1" target="XKSnobTcjBm1ILdcvmeS-105" edge="1">
          <mxGeometry width="50" height="50" relative="1" as="geometry">
            <mxPoint x="200" y="565" as="sourcePoint" />
            <mxPoint x="160" y="590" as="targetPoint" />
          </mxGeometry>
        </mxCell>
        <mxCell id="XKSnobTcjBm1ILdcvmeS-118" value="" style="edgeStyle=orthogonalEdgeStyle;rounded=0;orthogonalLoop=1;jettySize=auto;exitX=0.25;exitY=1;exitDx=0;exitDy=0;entryX=0.25;entryY=0;entryDx=0;entryDy=0;" parent="1" source="XKSnobTcjBm1ILdcvmeS-117" target="XKSnobTcjBm1ILdcvmeS-105" edge="1">
          <mxGeometry relative="1" as="geometry" />
        </mxCell>
        <mxCell id="XKSnobTcjBm1ILdcvmeS-117" value="User Input&#xa;" style="rounded=0;" parent="1" vertex="1">
          <mxGeometry x="30" y="415" width="120" height="60" as="geometry" />
        </mxCell>
        <mxCell id="XKSnobTcjBm1ILdcvmeS-120" value="" style="endArrow=none;rounded=0;" parent="1" edge="1">
          <mxGeometry relative="1" as="geometry">
            <mxPoint x="180" y="290" as="sourcePoint" />
            <mxPoint x="220" y="250" as="targetPoint" />
          </mxGeometry>
        </mxCell>
        <mxCell id="_naygu-frNBAhSqX7FRT-1" value="Architectural&#xa;Overview" style="text;strokeColor=none;fillColor=none;align=center;verticalAlign=middle;rounded=0;fontSize=18;fontStyle=1;" vertex="1" parent="1">
          <mxGeometry x="20" y="30" width="160" height="90" as="geometry" />
        </mxCell>
      </root>
    </mxGraphModel>
  </diagram>
</mxfile>
